<svg width="20" height="58" viewBox="0 0 20 58" fill="none" xmlns="http://www.w3.org/2000/svg">
<path d="M19 57H1V53.7869V50.1148V46.4426V43.2295V39.5574V36.3443V32.6721V29V25.7869V22.1148V18.9016V15.2295V11.5574V7.88525V4.44262V1H19V4.44262V7.88525V11.5574V15.2295V18.9016V22.1148V25.7869V29V32.6721V36.3443V39.5574V43.2295V46.4426V50.1148V53.7869V57Z" fill="#2D2C39" fill-opacity="0.6"/>
<path d="M1 53.7869V57H19V53.7869M1 53.7869H19M1 53.7869V50.1148M19 53.7869V50.1148M19 50.1148H1M19 50.1148V46.4426M1 50.1148V46.4426M1 46.4426H19M1 46.4426V43.2295M19 46.4426V43.2295M19 43.2295H1M19 43.2295V39.5574M1 43.2295V39.5574M1 39.5574H19M1 39.5574V36.3443M19 39.5574V36.3443M19 36.3443H1M19 36.3443V32.6721M1 36.3443V32.6721M1 32.6721H19M1 32.6721V29M19 32.6721V29M19 29H1M19 29V25.7869M1 29V25.7869M1 25.7869H19M1 25.7869V22.1148M19 25.7869V22.1148M19 22.1148H1M19 22.1148V18.9016M1 22.1148V18.9016M1 18.9016H19M1 18.9016V15.2295M19 18.9016V15.2295M19 15.2295H1M19 15.2295V11.5574M1 15.2295V11.5574M1 11.5574H19M1 11.5574V7.88525M19 11.5574V7.88525M19 7.88525H1M19 7.88525V4.44262M1 7.88525V4.44262M1 4.44262V1H19V4.44262M1 4.44262H19" stroke="white" stroke-opacity="0.4"/>
</svg>
