<svg width="16" height="21" viewBox="0 0 16 21" fill="none" xmlns="http://www.w3.org/2000/svg">
<path d="M1 19.8496L1 0.999609H3.94375H11.0087H15.13L15.13 19.8496H8.065H1Z" fill="#2D2C39" fill-opacity="0.6"/>
<path d="M8.065 19.8496H15.13L15.13 0.999609H11.0088M8.065 19.8496H1L1 0.999609H3.94375M8.065 19.8496V16.3152M11.0088 0.999609H3.94375M11.0088 0.999609V4.17041M3.94375 0.999609L3.94375 4.17041M3.94375 4.17041L3.94375 10.4246C3.94375 12.7809 6.29875 12.7809 6.29875 12.7809H8.65375C11.0088 12.7809 11.0088 10.4246 11.0088 10.4246L11.0088 4.17041M3.94375 4.17041H11.0088M5.71 9.24648C5.71 9.24648 5.71 6.89023 7.47625 6.89023C7.47625 6.89023 9.2425 6.89023 9.2425 9.24648C9.2425 9.24648 9.2425 11.0137 7.47625 11.0137C7.47625 11.0137 5.71 11.0137 5.71 9.24648Z" stroke="black" stroke-opacity="0.6" stroke-width="0.5"/>
</svg>
