<svg width="16" height="21" viewBox="0 0 16 21" fill="none" xmlns="http://www.w3.org/2000/svg">
<path d="M15.1299 1L15.1299 19.85H12.1861H5.12113H0.999883L0.999883 1L8.06488 1L15.1299 1Z" fill="#2D2C39" fill-opacity="0.6"/>
<path d="M8.06488 1L0.999883 1L0.999883 19.85H5.12113M8.06488 1L15.1299 1L15.1299 19.85H12.1861M8.06488 1V4.53438M5.12113 19.85H12.1861M5.12113 19.85V16.6792M12.1861 19.85L12.1861 16.6792M12.1861 16.6792V10.425C12.1861 8.06875 9.83113 8.06875 9.83113 8.06875H7.47613C5.12113 8.06875 5.12113 10.425 5.12113 10.425L5.12113 16.6792M12.1861 16.6792H5.12113M10.4199 11.6031C10.4199 11.6031 10.4199 13.9594 8.65363 13.9594C8.65363 13.9594 6.88738 13.9594 6.88738 11.6031C6.88738 11.6031 6.88738 9.83594 8.65363 9.83594C8.65363 9.83594 10.4199 9.83594 10.4199 11.6031Z" stroke="black" stroke-opacity="0.6" stroke-width="0.5"/>
</svg>
