<svg width="21" height="16" viewBox="0 0 21 16" fill="none" xmlns="http://www.w3.org/2000/svg">
<path d="M1 0.915039H19.8457V3.85968V10.9268V15.0493H1V7.98218V0.915039Z" fill="#2D2C39" fill-opacity="0.6"/>
<path d="M1 7.98218V15.0493H19.8457V10.9268M1 7.98218V0.915039H19.8457V3.85968M1 7.98218H4.53357M19.8457 10.9268V3.85968M19.8457 10.9268H16.6756M19.8457 3.85968H16.6756M16.6756 3.85968H10.4229C8.06714 3.85968 8.06714 6.21539 8.06714 6.21539V8.57111C8.06714 10.9268 10.4229 10.9268 10.4229 10.9268H16.6756M16.6756 3.85968V10.9268M11.6007 5.62646C11.6007 5.62646 13.9564 5.62646 13.9564 7.39325C13.9564 7.39325 13.9564 9.16003 11.6007 9.16003C11.6007 9.16003 9.83392 9.16003 9.83392 7.39325C9.83392 7.39325 9.83392 5.62646 11.6007 5.62646Z" stroke="black" stroke-opacity="0.6" stroke-width="0.5"/>
</svg>
