<svg width="74" height="25" viewBox="0 0 74 25" fill="none" xmlns="http://www.w3.org/2000/svg">
<path d="M72.943 1.3299V24.2981H68.8205H64.1091H59.3976H55.2751H50.5637H46.4412H41.7298H37.0184H32.8959L28.1844 24.2981H24.0619H19.3505H14.6391H9.92767H5.51071H1.09375L1.09375 1.3299H5.51071H9.92767H14.6391H19.3505H24.0619H28.1844L32.8959 1.3299H37.0184H41.7298H46.4412H50.5637H55.2751H59.3976H64.1091H68.8205H72.943Z" fill="#2D2C39" fill-opacity="0.6"/>
<path d="M68.8205 24.2981H72.943V1.3299H68.8205M68.8205 24.2981V1.3299M68.8205 24.2981H64.1091M68.8205 1.3299H64.1091M64.1091 1.3299V24.2981M64.1091 1.3299H59.3976M64.1091 24.2981H59.3976M59.3976 24.2981V1.3299M59.3976 24.2981H55.2751M59.3976 1.3299H55.2751M55.2751 1.3299V24.2981M55.2751 1.3299H50.5637M55.2751 24.2981H50.5637M50.5637 24.2981V1.3299M50.5637 24.2981H46.4412M50.5637 1.3299H46.4412M46.4412 1.3299V24.2981M46.4412 1.3299H41.7298M46.4412 24.2981H41.7298M41.7298 24.2981V1.3299M41.7298 24.2981H37.0184M41.7298 1.3299H37.0184M37.0184 1.3299V24.2981M37.0184 1.3299H32.8959M37.0184 24.2981H32.8959M32.8959 24.2981V1.3299M32.8959 24.2981L28.1844 24.2981M32.8959 1.3299L28.1844 1.3299M28.1844 1.3299V24.2981M28.1844 1.3299H24.0619M28.1844 24.2981H24.0619M24.0619 24.2981V1.3299M24.0619 24.2981H19.3505M24.0619 1.3299H19.3505M19.3505 1.3299V24.2981M19.3505 1.3299H14.6391M19.3505 24.2981H14.6391M14.6391 24.2981L14.6391 1.3299M14.6391 24.2981H9.92767M14.6391 1.3299H9.92767M9.92767 1.3299L9.92767 24.2981M9.92767 1.3299H5.51071M9.92767 24.2981H5.51071M5.51071 24.2981H1.09375L1.09375 1.3299H5.51071M5.51071 24.2981L5.51071 1.3299" stroke="white" stroke-opacity="0.4"/>
</svg>
