<svg width="143" height="10" viewBox="0 0 143 10" fill="none" xmlns="http://www.w3.org/2000/svg">
<g clip-path="url(#clip0_252_12)">
<path d="M7.9978 1.2356V8.89166H4.46423H0.930664V1.2356H7.9978Z" fill="#2D2C39" fill-opacity="0.6"/>
<path d="M4.46423 8.89166H0.930664V1.2356H7.9978V8.89166H4.46423ZM4.46423 8.89166V6.53595V4.76916H3.28638H5.64209" stroke="black" stroke-opacity="0.6" stroke-width="0.5"/>
<path d="M15.0652 1.2356V8.89166H11.5316H7.99805V1.2356H15.0652Z" fill="#2D2C39" fill-opacity="0.6"/>
<path d="M11.5316 8.89166H7.99805V1.2356H15.0652V8.89166H11.5316ZM11.5316 8.89166V6.53595V4.76916H10.3538H12.7095" stroke="black" stroke-opacity="0.6" stroke-width="0.5"/>
<path d="M22.1316 1.2356V8.89166H18.598H15.0645V1.2356H22.1316Z" fill="#2D2C39" fill-opacity="0.6"/>
<path d="M18.598 8.89166H15.0645V1.2356H22.1316V8.89166H18.598ZM18.598 8.89166V6.53595V4.76916H17.4202H19.7759" stroke="black" stroke-opacity="0.6" stroke-width="0.5"/>
<path d="M29.199 1.2356V8.89166H25.6654H22.1318V1.2356H29.199Z" fill="#2D2C39" fill-opacity="0.6"/>
<path d="M25.6654 8.89166H22.1318V1.2356H29.199V8.89166H25.6654ZM25.6654 8.89166V6.53595V4.76916H24.4875H26.8433" stroke="black" stroke-opacity="0.6" stroke-width="0.5"/>
<path d="M36.2664 1.2356V8.89166H32.7328H29.1992V1.2356H36.2664Z" fill="#2D2C39" fill-opacity="0.6"/>
<path d="M32.7328 8.89166H29.1992V1.2356H36.2664V8.89166H32.7328ZM32.7328 8.89166V6.53595V4.76916H31.5549H33.9106" stroke="black" stroke-opacity="0.6" stroke-width="0.5"/>
<path d="M43.3337 1.2356V8.89166H39.8002H36.2666V1.2356H43.3337Z" fill="#2D2C39" fill-opacity="0.6"/>
<path d="M39.8002 8.89166H36.2666V1.2356H43.3337V8.89166H39.8002ZM39.8002 8.89166V6.53595V4.76916H38.6223H40.978" stroke="black" stroke-opacity="0.6" stroke-width="0.5"/>
<path d="M50.4001 1.2356V8.89166H46.8666H43.333V1.2356H50.4001Z" fill="#2D2C39" fill-opacity="0.6"/>
<path d="M46.8666 8.89166H43.333V1.2356H50.4001V8.89166H46.8666ZM46.8666 8.89166V6.53595V4.76916H45.6887H48.0444" stroke="black" stroke-opacity="0.6" stroke-width="0.5"/>
<path d="M57.4675 1.2356V8.89166H53.934H50.4004V1.2356H57.4675Z" fill="#2D2C39" fill-opacity="0.6"/>
<path d="M53.934 8.89166H50.4004V1.2356H57.4675V8.89166H53.934ZM53.934 8.89166V6.53595V4.76916H52.7561H55.1118" stroke="black" stroke-opacity="0.6" stroke-width="0.5"/>
<path d="M64.5349 1.2356V8.89166H61.0013H57.4678V1.2356H64.5349Z" fill="#2D2C39" fill-opacity="0.6"/>
<path d="M61.0013 8.89166H57.4678V1.2356H64.5349V8.89166H61.0013ZM61.0013 8.89166V6.53595V4.76916H59.8235H62.1792" stroke="black" stroke-opacity="0.6" stroke-width="0.5"/>
<path d="M71.6023 1.2356V8.89166H68.0687H64.5352V1.2356H71.6023Z" fill="#2D2C39" fill-opacity="0.6"/>
<path d="M68.0687 8.89166H64.5352V1.2356H71.6023V8.89166H68.0687ZM68.0687 8.89166V6.53595V4.76916H66.8909H69.2466" stroke="black" stroke-opacity="0.6" stroke-width="0.5"/>
<path d="M78.6687 1.2356V8.89166H75.1351H71.6016V1.2356H78.6687Z" fill="#2D2C39" fill-opacity="0.6"/>
<path d="M75.1351 8.89166H71.6016V1.2356H78.6687V8.89166H75.1351ZM75.1351 8.89166V6.53595V4.76916H73.9573H76.313" stroke="black" stroke-opacity="0.6" stroke-width="0.5"/>
<path d="M85.7361 1.2356V8.89166H82.2025H78.6689V1.2356H85.7361Z" fill="#2D2C39" fill-opacity="0.6"/>
<path d="M82.2025 8.89166H78.6689V1.2356H85.7361V8.89166H82.2025ZM82.2025 8.89166V6.53595V4.76916H81.0247H83.3804" stroke="black" stroke-opacity="0.6" stroke-width="0.5"/>
<path d="M92.8035 1.2356V8.89166H89.2699H85.7363V1.2356H92.8035Z" fill="#2D2C39" fill-opacity="0.6"/>
<path d="M89.2699 8.89166H85.7363V1.2356H92.8035V8.89166H89.2699ZM89.2699 8.89166V6.53595V4.76916H88.092H90.4478" stroke="black" stroke-opacity="0.6" stroke-width="0.5"/>
<path d="M99.8708 1.2356V8.89166H96.3373H92.8037V1.2356H99.8708Z" fill="#2D2C39" fill-opacity="0.6"/>
<path d="M96.3373 8.89166H92.8037V1.2356H99.8708V8.89166H96.3373ZM96.3373 8.89166V6.53595V4.76916H95.1594H97.5151" stroke="black" stroke-opacity="0.6" stroke-width="0.5"/>
<path d="M106.937 1.2356V8.89166H103.404H99.8701V1.2356H106.937Z" fill="#2D2C39" fill-opacity="0.6"/>
<path d="M103.404 8.89166H99.8701V1.2356H106.937V8.89166H103.404ZM103.404 8.89166V6.53595V4.76916H102.226H104.582" stroke="black" stroke-opacity="0.6" stroke-width="0.5"/>
<path d="M114.005 1.2356V8.89166H110.471H106.938V1.2356H114.005Z" fill="#2D2C39" fill-opacity="0.6"/>
<path d="M110.471 8.89166H106.938V1.2356H114.005V8.89166H110.471ZM110.471 8.89166V6.53595V4.76916H109.293H111.649" stroke="black" stroke-opacity="0.6" stroke-width="0.5"/>
<path d="M121.072 1.2356V8.89166H117.538H114.005V1.2356H121.072Z" fill="#2D2C39" fill-opacity="0.6"/>
<path d="M117.538 8.89166H114.005V1.2356H121.072V8.89166H117.538ZM117.538 8.89166V6.53595V4.76916H116.361H118.716" stroke="black" stroke-opacity="0.6" stroke-width="0.5"/>
<path d="M128.139 1.2356V8.89166H124.606H121.072V1.2356H128.139Z" fill="#2D2C39" fill-opacity="0.6"/>
<path d="M124.606 8.89166H121.072V1.2356H128.139V8.89166H124.606ZM124.606 8.89166V6.53595V4.76916H123.428H125.784" stroke="black" stroke-opacity="0.6" stroke-width="0.5"/>
<path d="M135.206 1.2356V8.89166H131.672H128.139V1.2356H135.206Z" fill="#2D2C39" fill-opacity="0.6"/>
<path d="M131.672 8.89166H128.139V1.2356H135.206V8.89166H131.672ZM131.672 8.89166V6.53595V4.76916H130.494H132.85" stroke="black" stroke-opacity="0.6" stroke-width="0.5"/>
<path d="M142.273 1.2356V8.89166H138.74H135.206V1.2356H142.273Z" fill="#2D2C39" fill-opacity="0.6"/>
<path d="M138.74 8.89166H135.206V1.2356H142.273V8.89166H138.74ZM138.74 8.89166V6.53595V4.76916H137.562H139.917" stroke="black" stroke-opacity="0.6" stroke-width="0.5"/>
</g>
<defs>
<clipPath id="clip0_252_12">
<rect width="143" height="10" fill="white"/>
</clipPath>
</defs>
</svg>
