<svg width="83" height="28" viewBox="0 0 83 28" fill="none" xmlns="http://www.w3.org/2000/svg">
<path d="M82.3428 1V27H77.6952H72.3838H67.0723H62.4247H57.1133H52.4657H47.1542H41.8428H37.1952H31.8838L27.2362 27H21.9247H16.6133H11.3018H6.32228H1.34277L1.34277 1H6.32228H11.3018H16.6133H21.9247H27.2362L31.8838 1H37.1952H41.8428H47.1542H52.4657H57.1133H62.4247H67.0723H72.3838H77.6952H82.3428Z" fill="#2D2C39" fill-opacity="0.6"/>
<path d="M77.6952 27H82.3428V0.999999H77.6952M77.6952 27V0.999999M77.6952 27H72.3838M77.6952 0.999999H72.3838M72.3838 0.999999V27M72.3838 0.999999H67.0723M72.3838 27H67.0723M67.0723 27V0.999999M67.0723 27H62.4247M67.0723 0.999999H62.4247M62.4247 0.999999V27M62.4247 0.999999H57.1133M62.4247 27H57.1133M57.1133 27V0.999999M57.1133 27H52.4657M57.1133 0.999999H52.4657M52.4657 0.999999V27M52.4657 0.999999H47.1542M52.4657 27H47.1542M47.1542 27V0.999999M47.1542 27H41.8428M47.1542 0.999999H41.8428M41.8428 0.999999V27M41.8428 0.999999H37.1952M41.8428 27H37.1952M37.1952 27V0.999999M37.1952 27H31.8838M37.1952 0.999999H31.8838M31.8838 0.999999V27M31.8838 0.999999L27.2362 0.999999M31.8838 27L27.2362 27M27.2362 27V0.999999M27.2362 27H21.9247M27.2362 0.999999H21.9247M21.9247 0.999999V27M21.9247 0.999999H16.6133M21.9247 27H16.6133M16.6133 27V0.999999M16.6133 27H11.3018M16.6133 0.999999H11.3018M11.3018 0.999999L11.3018 27M11.3018 0.999999H6.32228M11.3018 27H6.32228M6.32228 27H1.34277L1.34277 0.999999H6.32228M6.32228 27L6.32228 0.999999" stroke="white" stroke-opacity="0.4"/>
</svg>
