<svg width="53" height="18" viewBox="0 0 53 18" fill="none" xmlns="http://www.w3.org/2000/svg">
<path d="M52.2286 0.807863V17.2979H49.2689H45.8863H42.5037H39.544H36.1614H33.2017H29.8191L26.4366 17.2979H23.4768H20.0943H17.1345H13.752H10.3694H6.98683H3.81568H0.644531L0.644531 0.807863H3.81568H6.98683H10.3694H13.752H17.1345H20.0943H23.4768H26.4366L29.8191 0.807863H33.2017H36.1614H39.544H42.5037H45.8863H49.2689H52.2286Z" fill="#2D2C39" fill-opacity="0.6"/>
<path d="M49.2689 17.2979H52.2286V0.807863H49.2689M49.2689 17.2979V0.807863M49.2689 17.2979H45.8863M49.2689 0.807863H45.8863M45.8863 0.807863V17.2979M45.8863 0.807863H42.5037M45.8863 17.2979H42.5037M42.5037 17.2979V0.807863M42.5037 17.2979H39.544M42.5037 0.807863H39.544M39.544 0.807863V17.2979M39.544 0.807863H36.1614M39.544 17.2979H36.1614M36.1614 17.2979V0.807863M36.1614 17.2979H33.2017M36.1614 0.807863H33.2017M33.2017 0.807863V17.2979M33.2017 0.807863H29.8191M33.2017 17.2979H29.8191M29.8191 17.2979V0.807863M29.8191 17.2979L26.4366 17.2979M29.8191 0.807863L26.4366 0.807863M26.4366 0.807863V17.2979M26.4366 0.807863H23.4768M26.4366 17.2979H23.4768M23.4768 17.2979V0.807863M23.4768 17.2979H20.0943M23.4768 0.807863H20.0943M20.0943 0.807863V17.2979M20.0943 0.807863H17.1345M20.0943 17.2979H17.1345M17.1345 17.2979V0.807863M17.1345 17.2979H13.752M17.1345 0.807863H13.752M13.752 0.807863L13.752 17.2979M13.752 0.807863H10.3694M13.752 17.2979H10.3694M10.3694 17.2979L10.3694 0.807863M10.3694 17.2979H6.98683M10.3694 0.807863H6.98683M6.98683 0.807863L6.98683 17.2979M6.98683 0.807863H3.81568M6.98683 17.2979H3.81568M3.81568 17.2979H0.644531L0.644531 0.807863H3.81568M3.81568 17.2979L3.81568 0.807863" stroke="white" stroke-opacity="0.4"/>
</svg>
