<svg width="74" height="24" viewBox="0 0 74 24" fill="none" xmlns="http://www.w3.org/2000/svg">
<path d="M72.5748 0.53229V23.5005H68.4523H63.7409H59.0295H54.907H50.1956H46.0731H41.3616H36.6502H32.5277L27.8163 23.5005H23.6938H18.9824H14.2709H9.55951H5.14255H0.725586L0.725586 0.53229H5.14255H9.55951H14.2709H18.9824H23.6938H27.8163L32.5277 0.53229H36.6502H41.3616H46.0731H50.1956H54.907H59.0295H63.7409H68.4523H72.5748Z" fill="#2D2C39" fill-opacity="0.6"/>
<path d="M68.4523 23.5005H72.5748V0.53229H68.4523M68.4523 23.5005V0.53229M68.4523 23.5005H63.7409M68.4523 0.53229H63.7409M63.7409 0.53229V23.5005M63.7409 0.53229H59.0295M63.7409 23.5005H59.0295M59.0295 23.5005V0.53229M59.0295 23.5005H54.907M59.0295 0.53229H54.907M54.907 0.53229V23.5005M54.907 0.53229H50.1956M54.907 23.5005H50.1956M50.1956 23.5005V0.53229M50.1956 23.5005H46.0731M50.1956 0.53229H46.0731M46.0731 0.53229V23.5005M46.0731 0.53229H41.3616M46.0731 23.5005H41.3616M41.3616 23.5005V0.53229M41.3616 23.5005H36.6502M41.3616 0.53229H36.6502M36.6502 0.53229V23.5005M36.6502 0.53229H32.5277M36.6502 23.5005H32.5277M32.5277 23.5005V0.53229M32.5277 23.5005L27.8163 23.5005M32.5277 0.53229L27.8163 0.53229M27.8163 0.53229V23.5005M27.8163 0.53229H23.6938M27.8163 23.5005H23.6938M23.6938 23.5005V0.53229M23.6938 23.5005H18.9824M23.6938 0.53229H18.9824M18.9824 0.53229V23.5005M18.9824 0.53229H14.2709M18.9824 23.5005H14.2709M14.2709 23.5005L14.2709 0.53229M14.2709 23.5005H9.55951M14.2709 0.53229H9.55951M9.55951 0.53229L9.55951 23.5005M9.55951 0.53229H5.14255M9.55951 23.5005H5.14255M5.14255 23.5005H0.725586L0.725586 0.53229H5.14255M5.14255 23.5005L5.14255 0.53229" stroke="white" stroke-opacity="0.4"/>
</svg>
