<svg width="25" height="74" viewBox="0 0 25 74" fill="none" xmlns="http://www.w3.org/2000/svg">
<path d="M24.4369 72.7032H1.46875V68.5807V63.8693V59.1579V55.0354V50.324V46.2015V41.49V36.7786V32.6561V27.9447V23.8222V19.1108V14.3994V9.68793V5.27097V0.854004H24.4369V5.27097V9.68793V14.3994V19.1108V23.8222V27.9447V32.6561V36.7786V41.49V46.2015V50.324V55.0354V59.1579V63.8693V68.5807V72.7032Z" fill="#2D2C39" fill-opacity="0.6"/>
<path d="M1.46875 68.5807V72.7032H24.4369V68.5807M1.46875 68.5807H24.4369M1.46875 68.5807V63.8693M24.4369 68.5807V63.8693M24.4369 63.8693H1.46875M24.4369 63.8693V59.1579M1.46875 63.8693V59.1579M1.46875 59.1579H24.4369M1.46875 59.1579V55.0354M24.4369 59.1579V55.0354M24.4369 55.0354H1.46875M24.4369 55.0354V50.324M1.46875 55.0354V50.324M1.46875 50.324H24.4369M1.46875 50.324V46.2015M24.4369 50.324V46.2015M24.4369 46.2015H1.46875M24.4369 46.2015V41.49M1.46875 46.2015V41.49M1.46875 41.49H24.4369M1.46875 41.49V36.7786M24.4369 41.49V36.7786M24.4369 36.7786H1.46875M24.4369 36.7786V32.6561M1.46875 36.7786V32.6561M1.46875 32.6561H24.4369M1.46875 32.6561V27.9447M24.4369 32.6561V27.9447M24.4369 27.9447H1.46875M24.4369 27.9447V23.8222M1.46875 27.9447V23.8222M1.46875 23.8222H24.4369M1.46875 23.8222V19.1108M24.4369 23.8222V19.1108M24.4369 19.1108H1.46875M24.4369 19.1108V14.3994M1.46875 19.1108V14.3994M1.46875 14.3994H24.4369M1.46875 14.3994V9.68793M24.4369 14.3994V9.68793M24.4369 9.68793H1.46875M24.4369 9.68793V5.27097M1.46875 9.68793V5.27097M1.46875 5.27097V0.854004H24.4369V5.27097M1.46875 5.27097H24.4369" stroke="white" stroke-opacity="0.4"/>
</svg>
