<svg width="107" height="10" viewBox="0 0 107 10" fill="none" xmlns="http://www.w3.org/2000/svg">
<g clip-path="url(#clip0_252_54)">
<path d="M7.50171 1.2356V8.89166H3.96814H0.43457V1.2356H7.50171Z" fill="#2D2C39" fill-opacity="0.6"/>
<path d="M3.96814 8.89166H0.43457V1.2356H7.50171V8.89166H3.96814ZM3.96814 8.89166V6.53595V4.76916H2.79028H5.146" stroke="black" stroke-opacity="0.6" stroke-width="0.5"/>
<path d="M14.5691 1.2356V8.89166H11.0355H7.50195V1.2356H14.5691Z" fill="#2D2C39" fill-opacity="0.6"/>
<path d="M11.0355 8.89166H7.50195V1.2356H14.5691V8.89166H11.0355ZM11.0355 8.89166V6.53595V4.76916H9.85767H12.2134" stroke="black" stroke-opacity="0.6" stroke-width="0.5"/>
<path d="M21.6365 1.2356V8.89166H18.1029H14.5693V1.2356H21.6365Z" fill="#2D2C39" fill-opacity="0.6"/>
<path d="M18.1029 8.89166H14.5693V1.2356H21.6365V8.89166H18.1029ZM18.1029 8.89166V6.53595V4.76916H16.925H19.2808" stroke="black" stroke-opacity="0.6" stroke-width="0.5"/>
<path d="M28.7029 1.2356V8.89166H25.1693H21.6357V1.2356H28.7029Z" fill="#2D2C39" fill-opacity="0.6"/>
<path d="M25.1693 8.89166H21.6357V1.2356H28.7029V8.89166H25.1693ZM25.1693 8.89166V6.53595V4.76916H23.9915H26.3472" stroke="black" stroke-opacity="0.6" stroke-width="0.5"/>
<path d="M35.7703 1.2356V8.89166H32.2367H28.7031V1.2356H35.7703Z" fill="#2D2C39" fill-opacity="0.6"/>
<path d="M32.2367 8.89166H28.7031V1.2356H35.7703V8.89166H32.2367ZM32.2367 8.89166V6.53595V4.76916H31.0588H33.4146" stroke="black" stroke-opacity="0.6" stroke-width="0.5"/>
<path d="M42.8376 1.2356V8.89166H39.3041H35.7705V1.2356H42.8376Z" fill="#2D2C39" fill-opacity="0.6"/>
<path d="M39.3041 8.89166H35.7705V1.2356H42.8376V8.89166H39.3041ZM39.3041 8.89166V6.53595V4.76916H38.1262H40.4819" stroke="black" stroke-opacity="0.6" stroke-width="0.5"/>
<path d="M49.905 1.2356V8.89166H46.3715H42.8379V1.2356H49.905Z" fill="#2D2C39" fill-opacity="0.6"/>
<path d="M46.3715 8.89166H42.8379V1.2356H49.905V8.89166H46.3715ZM46.3715 8.89166V6.53595V4.76916H45.1936H47.5493" stroke="black" stroke-opacity="0.6" stroke-width="0.5"/>
<path d="M56.9714 1.2356V8.89166H53.4379H49.9043V1.2356H56.9714Z" fill="#2D2C39" fill-opacity="0.6"/>
<path d="M53.4379 8.89166H49.9043V1.2356H56.9714V8.89166H53.4379ZM53.4379 8.89166V6.53595V4.76916H52.26H54.6157" stroke="black" stroke-opacity="0.6" stroke-width="0.5"/>
<path d="M64.0388 1.2356V8.89166H60.5052H56.9717V1.2356H64.0388Z" fill="#2D2C39" fill-opacity="0.6"/>
<path d="M60.5052 8.89166H56.9717V1.2356H64.0388V8.89166H60.5052ZM60.5052 8.89166V6.53595V4.76916H59.3274H61.6831" stroke="black" stroke-opacity="0.6" stroke-width="0.5"/>
<path d="M71.1062 1.2356V8.89166H67.5726H64.0391V1.2356H71.1062Z" fill="#2D2C39" fill-opacity="0.6"/>
<path d="M67.5726 8.89166H64.0391V1.2356H71.1062V8.89166H67.5726ZM67.5726 8.89166V6.53595V4.76916H66.3948H68.7505" stroke="black" stroke-opacity="0.6" stroke-width="0.5"/>
<path d="M78.1736 1.2356V8.89166H74.64H71.1064V1.2356H78.1736Z" fill="#2D2C39" fill-opacity="0.6"/>
<path d="M74.64 8.89166H71.1064V1.2356H78.1736V8.89166H74.64ZM74.64 8.89166V6.53595V4.76916H73.4622H75.8179" stroke="black" stroke-opacity="0.6" stroke-width="0.5"/>
<path d="M85.24 1.2356V8.89166H81.7064H78.1729V1.2356H85.24Z" fill="#2D2C39" fill-opacity="0.6"/>
<path d="M81.7064 8.89166H78.1729V1.2356H85.24V8.89166H81.7064ZM81.7064 8.89166V6.53595V4.76916H80.5286H82.8843" stroke="black" stroke-opacity="0.6" stroke-width="0.5"/>
<path d="M92.3074 1.2356V8.89166H88.7738H85.2402V1.2356H92.3074Z" fill="#2D2C39" fill-opacity="0.6"/>
<path d="M88.7738 8.89166H85.2402V1.2356H92.3074V8.89166H88.7738ZM88.7738 8.89166V6.53595V4.76916H87.5959H89.9517" stroke="black" stroke-opacity="0.6" stroke-width="0.5"/>
<path d="M99.3748 1.2356V8.89166H95.8412H92.3076V1.2356H99.3748Z" fill="#2D2C39" fill-opacity="0.6"/>
<path d="M95.8412 8.89166H92.3076V1.2356H99.3748V8.89166H95.8412ZM95.8412 8.89166V6.53595V4.76916H94.6633H97.019" stroke="black" stroke-opacity="0.6" stroke-width="0.5"/>
<path d="M106.442 1.2356V8.89166H102.909H99.375V1.2356H106.442Z" fill="#2D2C39" fill-opacity="0.6"/>
<path d="M102.909 8.89166H99.375V1.2356H106.442V8.89166H102.909ZM102.909 8.89166V6.53595V4.76916H101.731H104.086" stroke="black" stroke-opacity="0.6" stroke-width="0.5"/>
</g>
<defs>
<clipPath id="clip0_252_54">
<rect width="107" height="10" fill="white"/>
</clipPath>
</defs>
</svg>
