<svg width="21" height="15" viewBox="0 0 21 15" fill="none" xmlns="http://www.w3.org/2000/svg">
<path d="M1 0.603027H19.8457V3.54767V10.6148V14.7373H1V7.67017V0.603027Z" fill="#2D2C39" fill-opacity="0.6"/>
<path d="M1 7.67017V14.7373H19.8457V10.6148M1 7.67017V0.603027H19.8457V3.54767M1 7.67017H4.53357M19.8457 10.6148V3.54767M19.8457 10.6148H16.6756M19.8457 3.54767H16.6756M16.6756 3.54767H10.4229C8.06714 3.54767 8.06714 5.90338 8.06714 5.90338V8.25909C8.06714 10.6148 10.4229 10.6148 10.4229 10.6148H16.6756M16.6756 3.54767V10.6148M11.6007 5.31445C11.6007 5.31445 13.9564 5.31445 13.9564 7.08124C13.9564 7.08124 13.9564 8.84802 11.6007 8.84802C11.6007 8.84802 9.83392 8.84802 9.83392 7.08124C9.83392 7.08124 9.83392 5.31445 11.6007 5.31445Z" stroke="black" stroke-opacity="0.6" stroke-width="0.5"/>
</svg>
