<svg width="15" height="21" viewBox="0 0 15 21" fill="none" xmlns="http://www.w3.org/2000/svg">
<path d="M0.5 19.8457L0.5 1H3.44464H10.5118H14.6343L14.6343 19.8457H7.56714H0.5Z" fill="#2D2C39" fill-opacity="0.6"/>
<path d="M7.56714 19.8457H14.6343L14.6343 1H10.5118M7.56714 19.8457H0.5L0.5 1H3.44464M7.56714 19.8457V16.3121M10.5118 1H3.44464M10.5118 1V4.17008M3.44464 1L3.44464 4.17008M3.44464 4.17008L3.44464 10.4229C3.44464 12.7786 5.80035 12.7786 5.80035 12.7786H8.15607C10.5118 12.7786 10.5118 10.4229 10.5118 10.4229L10.5118 4.17008M3.44464 4.17008H10.5118M5.21143 9.245C5.21143 9.245 5.21143 6.88928 6.97821 6.88928C6.97821 6.88928 8.74499 6.88928 8.74499 9.245C8.74499 9.245 8.74499 11.0118 6.97821 11.0118C6.97821 11.0118 5.21143 11.0118 5.21143 9.245Z" stroke="black" stroke-opacity="0.6" stroke-width="0.5"/>
</svg>
