<svg width="83" height="28" viewBox="0 0 83 28" fill="none" xmlns="http://www.w3.org/2000/svg">
<path d="M82 1V27H77.3525H72.041H66.7295H62.082H56.7705H52.1229H46.8115H41.5H36.8525H31.541L26.8934 27H21.582H16.2705H10.959H5.97951H1L1 1H5.97951H10.959H16.2705H21.582H26.8934L31.541 1H36.8525H41.5H46.8115H52.1229H56.7705H62.082H66.7295H72.041H77.3525H82Z" fill="#2D2C39" fill-opacity="0.6"/>
<path d="M77.3525 27H82V0.999999H77.3525M77.3525 27V0.999999M77.3525 27H72.041M77.3525 0.999999H72.041M72.041 0.999999V27M72.041 0.999999H66.7295M72.041 27H66.7295M66.7295 27V0.999999M66.7295 27H62.082M66.7295 0.999999H62.082M62.082 0.999999V27M62.082 0.999999H56.7705M62.082 27H56.7705M56.7705 27V0.999999M56.7705 27H52.1229M56.7705 0.999999H52.1229M52.1229 0.999999V27M52.1229 0.999999H46.8115M52.1229 27H46.8115M46.8115 27V0.999999M46.8115 27H41.5M46.8115 0.999999H41.5M41.5 0.999999V27M41.5 0.999999H36.8525M41.5 27H36.8525M36.8525 27V0.999999M36.8525 27H31.541M36.8525 0.999999H31.541M31.541 0.999999V27M31.541 0.999999L26.8934 0.999999M31.541 27L26.8934 27M26.8934 27V0.999999M26.8934 27H21.582M26.8934 0.999999H21.582M21.582 0.999999V27M21.582 0.999999H16.2705M21.582 27H16.2705M16.2705 27V0.999999M16.2705 27H10.959M16.2705 0.999999H10.959M10.959 0.999999L10.959 27M10.959 0.999999H5.97951M10.959 27H5.97951M5.97951 27H1L1 0.999999H5.97951M5.97951 27L5.97951 0.999999" stroke="white" stroke-opacity="0.4"/>
</svg>
