<svg width="21" height="15" viewBox="0 0 21 15" fill="none" xmlns="http://www.w3.org/2000/svg">
<path d="M1 0.603516H19.8457V3.54816V10.6153V14.7378H1V7.67065V0.603516Z" fill="#2D2C39" fill-opacity="0.6"/>
<path d="M1 7.67065V14.7378H19.8457V10.6153M1 7.67065V0.603516H19.8457V3.54816M1 7.67065H4.53357M19.8457 10.6153V3.54816M19.8457 10.6153H16.6756M19.8457 3.54816H16.6756M16.6756 3.54816H10.4229C8.06714 3.54816 8.06714 5.90387 8.06714 5.90387V8.25958C8.06714 10.6153 10.4229 10.6153 10.4229 10.6153H16.6756M16.6756 3.54816V10.6153M11.6007 5.31494C11.6007 5.31494 13.9564 5.31494 13.9564 7.08173C13.9564 7.08173 13.9564 8.84851 11.6007 8.84851C11.6007 8.84851 9.83392 8.84851 9.83392 7.08173C9.83392 7.08173 9.83392 5.31494 11.6007 5.31494Z" stroke="black" stroke-opacity="0.6" stroke-width="0.5"/>
</svg>
