<svg width="111" height="84" viewBox="0 0 111 84" fill="none" xmlns="http://www.w3.org/2000/svg">
<path d="M1 1H9.72H100.796H110V9.34614V17.1071V24.9167V32.2381V33.2143V40.5357V48.3452V56.1548V63.4762V71.2857V78.6071H100.796H91.5911H54.2889L52.8356 83L52.4392 78.6071H49.9289H18.44H9.72H1V70.7976V62.9881V55.1786V48.3452V40.0476V32.2381V24.4286V16.619V8.80952V1Z" fill="#2D2C39" fill-opacity="0.6"/>
<path d="M1 78.6071H9.72M1 78.6071H18.44M1 78.6071V70.7976M9.72 1H1V8.80952M9.72 1V78.6071M9.72 1H100.796M9.72 78.6071H18.44M18.44 78.6071V70.7976M18.44 78.6071H49.9289M18.44 1.58513V8.80952M18.44 8.80952H1M18.44 8.80952V16.619M1 8.80952V16.619M1 16.619H18.44M1 16.619V24.4286M18.44 16.619V24.4286M18.44 16.619L91.5911 17.1071M18.44 24.4286H1M18.44 24.4286V32.2381V40.0476M1 24.4286V32.2381M1 32.2381V40.0476M1 32.2381H110M18.44 40.0476H1M18.44 40.0476V55.1786M1 40.0476V48.3452M1 55.1786H18.44M1 55.1786V62.9881M1 55.1786V48.3452M18.44 55.1786V62.9881V70.7976M1 62.9881V70.7976M1 62.9881L110 63.4762M1 70.7976H18.44M91.5911 17.1071H110M91.5911 17.1071V9.34614M91.5911 78.6071H110V71.2857M91.5911 78.6071V71.2857M91.5911 78.6071H54.2889M100.796 1H110V9.34614M100.796 1V71.2857M100.796 78.6071V71.2857M100.796 71.2857H91.5911M100.796 71.2857H110M91.5911 71.2857V63.4762V56.1548M110 71.2857V63.4762M110 63.4762V56.1548M110 56.1548H91.5911M110 56.1548V48.3452M91.5911 56.1548V48.3452V40.5357M110 48.3452V40.5357M110 48.3452H1M110 40.5357H91.5911M110 40.5357V33.2143V32.2381M91.5911 40.5357V33.2143V24.9167M91.5911 24.9167V1.58513V9.34614M91.5911 24.9167H110M110 24.9167V17.1071M110 24.9167V32.2381M110 17.1071V9.34614M91.5911 9.34614H110M49.9289 78.6071L51.8667 72.2619L52.8356 83L54.2889 78.6071M49.9289 78.6071H54.2889" stroke="white" stroke-opacity="0.6"/>
</svg>
